# xmcd CD database file
#
# Track frame offsets:
#	225
#	20941
#	44283
#	60725
#	81173
#	101054
#	117999
#	137722
#	156133
#	175032
#	196340
#	225134
#
# Disc length: 3330 seconds
#
# Revision: 0
# Processed by: cddbd v1.5.2PL0 Copyright (c) Steve Scherf et al.
# Submitted via: CDex 1.70beta2
#
DISCID=9a0cff0c
DTITLE=Jerry Joseph - Everything was beautiful
DYEAR=2000
DGENRE=Roots-Rock
TTITLE0=Good sunday
TTITLE1=King of Love
TTITLE2=What I Lived For
TTITLE3=Both of You
TTITLE4=1936 Jesus
TTITLE5=Mary Star of the Sea
TTITLE6=Middle East
TTITLE7=Mountain Home
TTITLE8=Joan of Arc
TTITLE9=You Again
TTITLE10=Altar in Your Box
TTITLE11=Beautiful Child Of God
EXTD=YEAR: 2000
EXTT0=
EXTT1=
EXTT2=
EXTT3=
EXTT4=
EXTT5=
EXTT6=
EXTT7=
EXTT8=
EXTT9=
EXTT10=
EXTT11=
PLAYORDER=
